<svg width="266" height="578" viewBox="0 0 266 578" fill="none" xmlns="http://www.w3.org/2000/svg">
<path d="M1.01331 5.7522C113.269 46.3218 194.501 152.739 197.039 279.209C199.395 396.591 133.321 499.433 35.4322 549.618" stroke="#FF8A00" stroke-width="4"/>
<line x1="158.324" y1="3.5918" x2="86.0579" y2="54.0554" stroke="#FF8A00" stroke-width="4"/>
<line x1="158.58" y1="576.124" x2="88.5386" y2="522.615" stroke="#FF8A00" stroke-width="4"/>
<ellipse opacity="0.3" cx="85.7767" cy="52.9197" rx="22" ry="22" transform="rotate(30.2529 85.7767 52.9197)" fill="white"/>
<line x1="262.682" y1="410.091" x2="174.56" y2="411.999" stroke="#FF8A00" stroke-width="4"/>
<ellipse cx="85.7768" cy="52.9197" rx="13" ry="13" transform="rotate(30.2529 85.7768 52.9197)" fill="#FFB660"/>
<ellipse opacity="0.3" cx="89.5352" cy="522.001" rx="22" ry="22" transform="rotate(102.558 89.5352 522.001)" fill="white"/>
<line x1="252.703" y1="209.077" x2="187.716" y2="210.381" stroke="#FF8A00" stroke-width="4"/>
<ellipse cx="89.5354" cy="522.002" rx="13" ry="13" transform="rotate(102.558 89.5354 522.002)" fill="#FFB660"/>
<ellipse opacity="0.3" cx="174.956" cy="410.898" rx="22" ry="22" transform="rotate(63.9388 174.956 410.898)" fill="white"/>
<ellipse opacity="0.3" cx="188.927" cy="208.882" rx="22" ry="22" transform="rotate(30.2529 188.927 208.882)" fill="white"/>
<ellipse cx="174.956" cy="410.898" rx="13" ry="13" transform="rotate(63.9388 174.956 410.898)" fill="#FFB660"/>
<ellipse cx="188.927" cy="208.882" rx="13" ry="13" transform="rotate(30.2529 188.927 208.882)" fill="#FFB660"/>
</svg>
