<svg width="256" height="578" viewBox="0 0 256 578" fill="none" xmlns="http://www.w3.org/2000/svg">
<path d="M254.5 2.66602C143.08 45.4797 64 153.505 64 280C64 397.406 132.124 498.901 231 547.113" stroke="#FF8A00" stroke-width="4"/>
<line y1="-2" x2="88.1419" y2="-2" transform="matrix(0.831208 0.555961 0.555961 -0.831208 98.2893 2)" stroke="#FF8A00" stroke-width="4"/>
<line y1="-2" x2="88.1419" y2="-2" transform="matrix(0.782299 -0.622903 -0.622903 -0.782299 107.163 574.52)" stroke="#FF8A00" stroke-width="4"/>
<circle opacity="0.3" cx="22" cy="22" r="22" transform="matrix(-0.853528 0.521047 0.521047 0.853528 178.015 21.2842)" fill="white"/>
<line y1="-2" x2="88.1419" y2="-2" transform="matrix(0.999999 0.00158958 0.00158958 -0.999999 1 410.173)" stroke="#FF8A00" stroke-width="4"/>
<circle cx="13" cy="13" r="13" transform="matrix(-0.853528 0.521047 0.521047 0.853528 175.022 33.6553)" fill="#FFB660"/>
<circle opacity="0.3" cx="22" cy="22" r="22" transform="matrix(0.236973 0.971516 0.971516 -0.236973 149.767 504.427)" fill="white"/>
<line y1="-2" x2="65" y2="-2" transform="matrix(1 0 0 -1 6.94067 209)" stroke="#FF8A00" stroke-width="4"/>
<circle cx="13" cy="13" r="13" transform="matrix(0.236973 0.971516 0.971516 -0.236973 160.643 511.038)" fill="#FFB660"/>
<circle opacity="0.3" cx="22" cy="22" r="22" transform="matrix(-0.42122 0.906959 0.906959 0.42122 78.0344 382)" fill="white"/>
<circle opacity="0.3" cx="22" cy="22" r="22" transform="matrix(-0.853528 0.521047 0.521047 0.853528 78.0146 179.284)" fill="white"/>
<circle cx="13" cy="13" r="13" transform="matrix(-0.42122 0.906959 0.906959 0.42122 82.406 393.954)" fill="#FFB660"/>
<circle cx="13" cy="13" r="13" transform="matrix(-0.853528 0.521047 0.521047 0.853528 75.0222 191.655)" fill="#FFB660"/>
</svg>
