<svg width="30" height="30" viewBox="0 0 30 30" fill="none" xmlns="http://www.w3.org/2000/svg">
<path fill-rule="evenodd" clip-rule="evenodd" d="M8.95334 0.65343C10.5173 0.58143 11.016 0.56543 15 0.56543C18.984 0.56543 19.4827 0.582763 21.0453 0.65343C22.608 0.724096 23.6747 0.97343 24.608 1.33476C25.5853 1.7041 26.472 2.28143 27.2053 3.0281C27.952 3.7601 28.528 4.64543 28.896 5.6241C29.2587 6.55743 29.5067 7.6241 29.5787 9.1841C29.6507 10.7508 29.6667 11.2494 29.6667 15.2321C29.6667 19.2161 29.6493 19.7148 29.5787 21.2788C29.508 22.8388 29.2587 23.9054 28.896 24.8388C28.528 25.8176 27.951 26.7044 27.2053 27.4374C26.472 28.1841 25.5853 28.7601 24.608 29.1281C23.6747 29.4908 22.608 29.7388 21.048 29.8108C19.4827 29.8828 18.984 29.8988 15 29.8988C11.016 29.8988 10.5173 29.8814 8.95334 29.8108C7.39334 29.7401 6.32668 29.4908 5.39334 29.1281C4.41457 28.76 3.52777 28.1831 2.79468 27.4374C2.04852 26.705 1.4711 25.8186 1.10268 24.8401C0.741344 23.9068 0.493343 22.8401 0.421343 21.2801C0.349343 19.7134 0.333344 19.2148 0.333344 15.2321C0.333344 11.2481 0.350677 10.7494 0.421343 9.18676C0.49201 7.6241 0.741344 6.55743 1.10268 5.6241C1.47164 4.64554 2.0495 3.75918 2.79601 3.02676C3.52806 2.28076 4.41397 1.70335 5.39201 1.33476C6.32534 0.97343 7.39201 0.72543 8.95201 0.65343H8.95334ZM20.9267 3.29343C19.38 3.22276 18.916 3.2081 15 3.2081C11.084 3.2081 10.62 3.22276 9.07334 3.29343C7.64268 3.35876 6.86668 3.59743 6.34934 3.79876C5.66534 4.06543 5.17601 4.38143 4.66268 4.89476C4.17607 5.36817 3.80158 5.94447 3.56668 6.58143C3.36534 7.09876 3.12668 7.87476 3.06134 9.30543C2.99068 10.8521 2.97601 11.3161 2.97601 15.2321C2.97601 19.1481 2.99068 19.6121 3.06134 21.1588C3.12668 22.5894 3.36534 23.3654 3.56668 23.8828C3.80134 24.5188 4.17601 25.0961 4.66268 25.5694C5.13601 26.0561 5.71334 26.4308 6.34934 26.6654C6.86668 26.8668 7.64268 27.1054 9.07334 27.1708C10.62 27.2414 11.0827 27.2561 15 27.2561C18.9173 27.2561 19.38 27.2414 20.9267 27.1708C22.3573 27.1054 23.1333 26.8668 23.6507 26.6654C24.3347 26.3988 24.824 26.0828 25.3373 25.5694C25.824 25.0961 26.1987 24.5188 26.4333 23.8828C26.6347 23.3654 26.8733 22.5894 26.9387 21.1588C27.0093 19.6121 27.024 19.1481 27.024 15.2321C27.024 11.3161 27.0093 10.8521 26.9387 9.30543C26.8733 7.87476 26.6347 7.09876 26.4333 6.58143C26.1667 5.89743 25.8507 5.4081 25.3373 4.89476C24.8639 4.40819 24.2876 4.03371 23.6507 3.79876C23.1333 3.59743 22.3573 3.35876 20.9267 3.29343ZM13.1267 19.7534C14.1729 20.1889 15.3378 20.2477 16.4226 19.9197C17.5073 19.5917 18.4445 18.8973 19.0742 17.9551C19.7038 17.0129 19.9867 15.8813 19.8747 14.7536C19.7627 13.6259 19.2627 12.5721 18.46 11.7721C17.9483 11.2607 17.3296 10.8692 16.6485 10.6256C15.9673 10.3821 15.2406 10.2926 14.5207 10.3636C13.8008 10.4346 13.1055 10.6643 12.4851 11.0363C11.8646 11.4082 11.3343 11.9131 10.9324 12.5146C10.5305 13.116 10.2669 13.7991 10.1607 14.5147C10.0545 15.2303 10.1082 15.9605 10.3181 16.6528C10.5279 17.3451 10.8887 17.9822 11.3743 18.5184C11.86 19.0545 12.4584 19.4763 13.1267 19.7534ZM9.66934 9.90143C10.3694 9.2014 11.2004 8.6461 12.1151 8.26724C13.0297 7.88839 14.01 7.69339 15 7.69339C15.99 7.69339 16.9703 7.88839 17.8849 8.26724C18.7996 8.6461 19.6306 9.2014 20.3307 9.90143C21.0307 10.6015 21.586 11.4325 21.9649 12.3472C22.3437 13.2618 22.5387 14.2421 22.5387 15.2321C22.5387 16.2221 22.3437 17.2024 21.9649 18.117C21.586 19.0317 21.0307 19.8627 20.3307 20.5628C18.9169 21.9765 16.9994 22.7708 15 22.7708C13.0006 22.7708 11.0831 21.9765 9.66934 20.5628C8.25556 19.149 7.46131 17.2315 7.46131 15.2321C7.46131 13.2327 8.25556 11.3152 9.66934 9.90143ZM24.2107 8.8161C24.3841 8.65245 24.523 8.45567 24.6191 8.23739C24.7151 8.01912 24.7664 7.78379 24.7699 7.54534C24.7734 7.30688 24.729 7.07016 24.6393 6.84918C24.5497 6.62819 24.4166 6.42744 24.248 6.25881C24.0793 6.09019 23.8786 5.95711 23.6576 5.86745C23.4366 5.7778 23.1999 5.7334 22.9614 5.73687C22.723 5.74035 22.4877 5.79163 22.2694 5.88769C22.0511 5.98375 21.8543 6.12262 21.6907 6.2961C21.3724 6.63347 21.1982 7.08159 21.2049 7.54534C21.2117 8.00908 21.3989 8.45193 21.7269 8.77989C22.0548 9.10784 22.4977 9.29507 22.9614 9.30183C23.4252 9.30859 23.8733 9.13435 24.2107 8.8161Z" fill="#A9B2BF"/>
</svg>
