<svg width="22" height="19" viewBox="0 0 22 19" fill="none" xmlns="http://www.w3.org/2000/svg">
<path d="M22 3.09678C21.1775 3.4632 20.304 3.70244 19.4095 3.80628C20.3517 3.24162 21.0571 2.35444 21.395 1.30928C20.5089 1.83438 19.5399 2.20495 18.5295 2.40516C18.1067 1.95519 17.596 1.59683 17.0291 1.35227C16.4622 1.10771 15.8511 0.982161 15.2336 0.983408C14.5535 0.982697 13.8821 1.13581 13.2695 1.43128C12.657 1.72675 12.1192 2.15693 11.6964 2.68963C11.2736 3.22234 10.9767 3.84376 10.828 4.50741C10.6793 5.17105 10.6827 5.85973 10.8378 6.52191C9.04298 6.43173 7.28722 5.96512 5.68447 5.15237C4.08172 4.33963 2.66781 3.19891 1.53451 1.80428C0.957206 2.7975 0.780177 3.97342 1.03947 5.09258C1.29876 6.21175 1.97487 7.19 2.93013 7.82816C2.21328 7.80499 1.51212 7.61226 0.884132 7.26578V7.32216C0.883882 8.36466 1.24447 9.37511 1.90466 10.1819C2.56485 10.9888 3.48395 11.5422 4.50588 11.7483C3.84013 11.9297 3.14171 11.9566 2.46401 11.8267C2.75324 12.723 3.31477 13.5068 4.0704 14.0689C4.82603 14.6311 5.73815 14.9436 6.67976 14.963C5.74308 15.6989 4.67045 16.2427 3.52328 16.5633C2.37612 16.884 1.17697 16.9752 -0.00549316 16.8317C2.05889 18.1589 4.46204 18.863 6.91626 18.8598C15.2171 18.8598 19.7601 11.9807 19.7601 6.01591C19.7601 5.81791 19.756 5.62541 19.7478 5.43153C20.6322 4.79538 21.3947 4.00494 21.9986 3.09816L22 3.09678Z" fill="#A9B2BF"/>
</svg>
